<svg width="37" height="22" viewBox="0 0 37 22" fill="none" xmlns="http://www.w3.org/2000/svg">
<path d="M33.3 7.29309e-08H11.8668C11.3808 -9.59998e-05 10.8996 0.0947271 10.4506 0.279049C10.0017 0.46337 9.59375 0.733576 9.25022 1.07422L0.541988 9.70349C-0.180663 10.4196 -0.180663 11.5804 0.541988 12.2959L9.25022 20.9258C9.94396 21.6133 10.8851 22 11.8662 22H33.3C35.3437 22 37 20.3586 37 18.3333V3.66667C37 1.64141 35.3437 7.29309e-08 33.3 7.29309e-08ZM28.4039 14.5555C28.7653 14.9136 28.7653 15.494 28.4039 15.852L27.0962 17.148C26.7349 17.506 26.1493 17.506 25.7879 17.148L22.2001 13.5924L18.6123 17.148C18.251 17.506 17.6653 17.506 17.304 17.148L15.9963 15.852C15.635 15.494 15.635 14.9136 15.9963 14.5555L19.5841 11L15.9963 7.44448C15.635 7.08641 15.635 6.50604 15.9963 6.14797L17.304 4.85203C17.6653 4.49396 18.251 4.49396 18.6123 4.85203L22.2001 8.40755L25.7879 4.85203C26.1493 4.49396 26.7349 4.49396 27.0962 4.85203L28.4039 6.14797C28.7653 6.50604 28.7653 7.08641 28.4039 7.44448L24.8161 11L28.4039 14.5555Z" fill="black" fill-opacity="0.52"/>
<path d="M11.8667 0.5H11.8668H33.3C35.0718 0.5 36.5 1.9218 36.5 3.66667V18.3333C36.5 20.0782 35.0718 21.5 33.3 21.5H11.8662C11.0164 21.5 10.2019 21.165 9.60217 20.5706L0.893939 11.9408L0.893797 11.9406C0.368813 11.4208 0.368608 10.5792 0.893939 10.0586L9.60216 1.42938L9.60227 1.42926C9.89916 1.13487 10.2519 0.901122 10.6405 0.741586C11.0291 0.582047 11.4458 0.499917 11.8667 0.5ZM28.7559 16.2072C29.3146 15.6535 29.3146 14.7541 28.7559 14.2004L25.5264 11L28.7559 7.79963C29.3146 7.24593 29.3146 6.34651 28.7559 5.79282L27.4482 4.49688C26.892 3.94568 25.9922 3.94567 25.436 4.49688L22.2001 7.70362L18.9643 4.49688C18.408 3.94567 17.5083 3.94568 16.9521 4.49688L15.6444 5.79282C15.0856 6.34651 15.0856 7.24593 15.6444 7.79963L18.8738 11L15.6444 14.2004C15.0856 14.7541 15.0856 15.6535 15.6444 16.2072L16.9521 17.5031C17.5083 18.0543 18.408 18.0543 18.9643 17.5031L22.2001 14.2964L25.436 17.5031C25.9922 18.0543 26.892 18.0543 27.4482 17.5031L28.7559 16.2072Z" stroke="black" stroke-opacity="0.19"/>
</svg>
