<svg width="48" height="42" viewBox="0 0 48 42" fill="none" xmlns="http://www.w3.org/2000/svg">
<path d="M47.9908 25.4579C47.9879 29.8128 46.2573 33.9887 43.1789 37.069C40.1004 40.1493 35.9257 41.8824 31.5708 41.8879H2.00879C1.47836 41.8879 0.969649 41.6772 0.594576 41.3022C0.219503 40.9271 0.00878906 40.4184 0.00878906 39.8879C0.00878906 39.3575 0.219503 38.8488 0.594576 38.4737C0.969649 38.0987 1.47836 37.8879 2.00879 37.8879H31.5708C34.8467 37.8586 37.9784 36.5366 40.2844 34.2097C42.5905 31.8829 43.8843 28.7395 43.8843 25.4634C43.8843 22.1874 42.5905 19.044 40.2844 16.7171C37.9784 14.3903 34.8467 13.0683 31.5708 13.0389H7.59079L14.1358 18.4199C14.34 18.5863 14.5093 18.7914 14.634 19.0233C14.7587 19.2553 14.8364 19.5096 14.8626 19.7717C14.8888 20.0337 14.8629 20.2984 14.7865 20.5505C14.7101 20.8025 14.5847 21.037 14.4175 21.2405C14.2503 21.4439 14.0445 21.6123 13.812 21.7361C13.5795 21.8598 13.3248 21.9363 13.0626 21.9614C12.8004 21.9864 12.5359 21.9594 12.2842 21.882C12.0325 21.8045 11.7985 21.6781 11.5958 21.5099L0.73879 12.5829C0.71479 12.5629 0.696789 12.5389 0.673789 12.5179C0.621727 12.4707 0.572319 12.4206 0.525789 12.3679L0.509789 12.3529C0.495789 12.3369 0.477789 12.3249 0.463789 12.3089V12.3029C0.442789 12.2779 0.42779 12.2489 0.40879 12.2229C0.369454 12.1707 0.333064 12.1163 0.299789 12.0599C0.291789 12.0469 0.280789 12.0349 0.273789 12.0209C0.266789 12.0069 0.248789 11.9879 0.239789 11.9699C0.230789 11.9519 0.218789 11.9159 0.206789 11.8899C0.180132 11.8317 0.156108 11.7723 0.134789 11.7119L0.127789 11.6939C0.0865072 11.5796 0.0573472 11.4613 0.0407896 11.3409C0.0347896 11.3039 0.0227897 11.2689 0.0197897 11.2319C0.0167897 11.1949 0.0197897 11.1609 0.0197897 11.1259C0.0197897 11.0909 0.0107889 11.0689 0.0107889 11.0389C0.0107889 11.0089 0.0187897 10.9809 0.0197897 10.9509V10.8459C0.0197897 10.8109 0.0347896 10.7729 0.0407896 10.7359C0.0572889 10.6155 0.0864504 10.4972 0.127789 10.3829L0.134789 10.3649C0.156789 10.3039 0.179789 10.2449 0.206789 10.1869C0.218789 10.1609 0.225789 10.1329 0.239789 10.1069C0.253789 10.0809 0.263789 10.0739 0.273789 10.0559C0.283789 10.0379 0.291789 10.0299 0.299789 10.0169C0.332415 9.96068 0.368136 9.90626 0.406789 9.85394C0.425789 9.82794 0.440789 9.79894 0.461789 9.77394V9.76894C0.481789 9.74394 0.506789 9.72694 0.527789 9.70294C0.573789 9.65294 0.620789 9.60294 0.671789 9.55894C0.694789 9.53794 0.71279 9.51394 0.73679 9.49394L0.746789 9.48495L11.5998 0.566945C11.8025 0.398822 12.0365 0.272397 12.2882 0.194926C12.5399 0.117455 12.8044 0.0904653 13.0666 0.115505C13.3288 0.140545 13.5835 0.21712 13.816 0.340837C14.0485 0.464554 14.2543 0.632976 14.4215 0.836433C14.5887 1.03989 14.7141 1.27438 14.7905 1.52643C14.8669 1.77848 14.8928 2.04314 14.8666 2.30521C14.8404 2.56728 14.7627 2.8216 14.638 3.05357C14.5133 3.28553 14.344 3.49058 14.1398 3.65694L7.59479 9.03894H31.5748C35.9273 9.04477 40.0999 10.7766 43.1773 13.8546C46.2547 16.9326 47.9858 21.1054 47.9908 25.4579Z" fill="white"/>
</svg>
