<svg width="44" height="39" viewBox="0 0 44 39" fill="none" xmlns="http://www.w3.org/2000/svg">
<path d="M31.6124 0C39.012 0 43.3845 4.28701 43.3845 11.5654V11.6461H34.292C30.0607 11.6536 26.6329 15.0261 26.6253 19.1892C26.6196 23.3617 30.0512 26.7492 34.292 26.7549H43.3922V27.4177C43.3922 34.6961 39.0196 39 31.62 39H12.2231C4.82166 39 0.449097 34.6961 0.449097 27.4177V11.5654C0.449097 4.28701 4.82166 0 12.2231 0H31.6124ZM22.7432 8.39562H10.6256C9.7248 8.39939 8.99381 9.11859 8.98998 10.0068C8.98618 10.8987 9.71907 11.6255 10.6256 11.6292H22.7585C23.6651 11.6255 24.398 10.8987 24.3942 10.0049C24.3903 9.11296 23.6498 8.39188 22.7432 8.39562Z" fill="#8000FF"/>
<path opacity="0.4" d="M30.5891 20.1427C31.0381 22.2036 32.8287 23.6536 34.8731 23.6159H41.8512C42.7018 23.6159 43.3917 22.9051 43.3917 22.0264V16.5413C43.3899 15.6646 42.7018 14.9518 41.8512 14.95H34.7088C32.3834 14.9575 30.5051 16.9053 30.5088 19.3056C30.5088 19.5865 30.5362 19.8674 30.5891 20.1427Z" fill="#8000FF"/>
<path d="M34.8035 21.45C35.9894 21.45 36.9507 20.48 36.9507 19.2834C36.9507 18.0867 35.9894 17.1167 34.8035 17.1167C33.6177 17.1167 32.6564 18.0867 32.6564 19.2834C32.6564 20.48 33.6177 21.45 34.8035 21.45Z" fill="#8000FF"/>
</svg>
