<svg width="11" height="6" viewBox="0 0 11 6" fill="none" xmlns="http://www.w3.org/2000/svg">
<path d="M7.16546 5.26613L10.7715 1.42682C10.9179 1.2701 11 1.0581 11 0.837119C11 0.616141 10.9179 0.404141 10.7715 0.247421C10.6985 0.169022 10.6116 0.106795 10.5159 0.0643291C10.4201 0.0218635 10.3175 -2.98351e-08 10.2137 -3.43686e-08C10.11 -3.8902e-08 10.0073 0.0218635 9.9116 0.0643291C9.81586 0.106795 9.72897 0.169022 9.65594 0.247421L6.05771 4.0951C5.98468 4.1735 5.89779 4.23572 5.80205 4.27819C5.70631 4.32066 5.60362 4.34252 5.49991 4.34252C5.3962 4.34252 5.29351 4.32066 5.19777 4.27819C5.10203 4.23572 5.01514 4.1735 4.94211 4.0951L1.34388 0.247421C1.19699 0.0899136 0.997339 0.000986505 0.788858 0.00020217C0.580379 -0.000582164 0.380144 0.0868412 0.232205 0.243239C0.0842666 0.399637 0.000741932 0.612198 4.73191e-06 0.834162C-0.000731514 1.05613 0.0813817 1.26931 0.228278 1.42682L3.83436 5.26613C4.27628 5.73605 4.87532 6 5.49991 6C6.12449 6 6.72354 5.73605 7.16546 5.26613Z" fill="#D9D9D9"/>
</svg>
