<svg width="9" height="11" viewBox="0 0 9 11" fill="none" xmlns="http://www.w3.org/2000/svg">
<path d="M7.89919 3.83454L2.14023 0.228458C1.90515 0.0821318 1.58715 0 1.25568 0C0.924211 0 0.606211 0.0821318 0.371131 0.228458C0.253532 0.301493 0.160192 0.388385 0.0964937 0.484123C0.0327954 0.57986 0 0.682547 0 0.786261C0 0.889974 0.0327954 0.992662 0.0964937 1.0884C0.160192 1.18414 0.253532 1.27103 0.371131 1.34406L6.14265 4.94229C6.26025 5.01532 6.35359 5.10221 6.41728 5.19795C6.48098 5.29369 6.51378 5.39638 6.51378 5.50009C6.51378 5.6038 6.48098 5.70649 6.41728 5.80223C6.35359 5.89797 6.26025 5.98486 6.14265 6.05789L0.371131 9.65612C0.134871 9.80301 0.00148041 10.0027 0.000303925 10.2111C-0.000872564 10.4196 0.130262 10.6199 0.364859 10.7678C0.599456 10.9157 0.918297 10.9993 1.25124 11C1.58419 11.0007 1.90397 10.9186 2.14023 10.7717L7.89919 7.16564C8.60407 6.72372 9 6.12467 9 5.50009C9 4.87551 8.60407 4.27646 7.89919 3.83454Z" fill="#D9D9D9"/>
</svg>
