<svg width="22" height="21" viewBox="0 0 22 21" fill="none" xmlns="http://www.w3.org/2000/svg">
<path d="M0.431641 4.84614C0.431641 2.1697 2.65005 0 5.38659 0H16.9482C19.6847 0 21.9031 2.1697 21.9031 4.84614V16.1539C21.9031 18.8303 19.6847 21 16.9482 21H5.38659C2.65005 21 0.431641 18.8303 0.431641 16.1539V4.84614Z" fill="#0052FF"/>
<path d="M11.1471 14.4375C10.3871 14.4225 9.64685 14.1984 9.01165 13.791C8.37645 13.3836 7.87209 12.8095 7.55664 12.1347C7.24123 11.46 7.12752 10.7121 7.22862 9.97706C7.32976 9.24201 7.64158 8.5498 8.12823 7.98009C8.61487 7.41038 9.25656 6.98631 9.97939 6.75675C10.7022 6.52715 11.4768 6.50138 12.2139 6.68242C12.9511 6.86346 13.6209 7.24386 14.1462 7.77993C14.6715 8.316 15.0309 8.9859 15.1831 9.7125H19.2191C19.0121 7.70232 18.021 5.84662 16.4508 4.52931C14.8807 3.21197 12.8517 2.53374 10.7834 2.63488C8.71512 2.73602 6.76582 3.60881 5.33859 5.07273C3.91139 6.53664 3.11548 8.47967 3.11548 10.5C3.11548 12.5203 3.91139 14.4634 5.33859 15.9273C6.76582 17.3912 8.71512 18.264 10.7834 18.3651C12.8517 18.4663 14.8807 17.7881 16.4508 16.4707C18.021 15.1534 19.0121 13.2977 19.2191 11.2875H15.1831C15.1831 12.8625 12.7615 14.4375 11.1471 14.4375Z" fill="white"/>
</svg>
