<svg width="50" height="11" viewBox="0 0 50 11" fill="none" xmlns="http://www.w3.org/2000/svg">
<path fill-rule="evenodd" clip-rule="evenodd" d="M25.8389 0H24.2831V10.4777C24.9847 10.7235 25.8694 10.9385 26.9067 10.9385C29.4997 10.9385 30.9945 9.40223 30.9945 7.15922C30.9945 4.9162 29.4692 3.59497 27.4558 3.59497C26.8456 3.59497 26.205 3.77933 25.8694 3.93296L25.8389 0ZM14.6736 0.614525C14.155 0.614525 13.6974 1.04469 13.6974 1.56704C13.6974 2.12011 14.155 2.58101 14.6736 2.58101C15.1922 2.58101 15.6498 2.15084 15.6498 1.56704C15.6498 1.04469 15.1922 0.614525 14.6736 0.614525ZM4.97254 9.37151C4.63697 9.49441 4.2709 9.58659 3.87431 9.58659C2.50153 9.58659 1.55583 8.69553 1.55583 7.31285C1.55583 5.83799 2.53203 5.03911 3.8133 5.03911C4.17938 5.03911 4.54545 5.10056 4.91153 5.25419C5.06406 4.85475 5.30812 4.45531 5.58267 4.11732C5.00305 3.81006 4.42343 3.65642 3.69128 3.65642C1.64735 3.65642 0 5.06983 0 7.34358C0 9.58659 1.55583 11 3.69128 11C4.42343 11 5.06406 10.8464 5.7047 10.5084C5.39963 10.1397 5.15558 9.77095 4.97254 9.37151ZM9.27395 3.59497C11.3789 3.59497 12.9042 5.10056 12.9042 7.28212C12.9042 9.46369 11.3789 10.9385 9.27395 10.9385C7.19951 10.9385 5.67419 9.43296 5.67419 7.28212C5.64368 5.10056 7.16901 3.59497 9.27395 3.59497ZM7.23002 7.28212C7.23002 5.86872 8.0842 4.94693 9.24344 4.94693C10.4332 4.94693 11.2874 5.83799 11.2874 7.28212C11.2874 8.69553 10.4637 9.58659 9.24344 9.58659C8.0842 9.58659 7.23002 8.69553 7.23002 7.28212ZM13.8804 10.7849H15.4362V3.7486H13.8804V10.7849ZM16.809 4.2095C17.7852 3.84078 19.0055 3.59497 20.0122 3.59497C21.8121 3.59497 22.9408 4.27095 22.9408 6.26816V10.7849H21.385V6.39106C21.385 5.37709 20.7444 5.00838 19.8902 5.00838C19.3411 5.00838 18.7919 5.10056 18.3649 5.22346V10.7849H16.809V4.2095ZM25.8389 9.46369C26.144 9.55587 26.5406 9.61732 26.9372 9.61732C28.371 9.61732 29.4082 8.81844 29.4082 7.18994C29.4082 5.83799 28.432 5.00838 27.2422 5.00838C26.6321 5.00838 26.144 5.16201 25.8389 5.34637V9.46369ZM34.1672 4.94693C34.9298 4.94693 35.5095 5.28492 35.5095 6.05307V6.63687H34.7468C32.7334 6.63687 31.5131 7.34358 31.5131 8.75698C31.5131 10.3547 32.8554 10.9078 34.6553 10.9078C35.4484 10.9078 36.3941 10.7849 37.0653 10.6313V5.99162C37.0653 4.24022 35.9671 3.59497 34.4417 3.59497C33.557 3.59497 32.7944 3.81006 32.1538 4.17877V5.53073C32.7029 5.19274 33.3435 4.94693 34.1672 4.94693ZM35.5095 7.71229H34.8383C33.7401 7.71229 33.0384 8.01955 33.0384 8.75698C33.0384 9.49441 33.7096 9.77095 34.6553 9.77095C34.8993 9.77095 35.2349 9.74022 35.5095 9.67877V7.71229ZM40.299 9.67877C39.5973 9.67877 38.8041 9.37151 38.1635 8.87989V10.3855C38.6821 10.7235 39.5058 10.9693 40.3295 10.9693C41.8548 10.9693 42.9835 10.2933 42.9835 8.81844C42.9835 7.55866 42.2819 6.94413 40.6955 6.60615C39.9024 6.39106 39.5973 6.14525 39.5973 5.68436C39.5973 5.22346 39.9634 4.88548 40.6345 4.88548C41.3667 4.88548 41.9768 5.16201 42.5869 5.59218V4.14805C42.0073 3.77933 41.3667 3.59497 40.5735 3.59497C39.1397 3.59497 38.072 4.30168 38.072 5.71508C38.072 6.94413 38.6821 7.52793 40.1464 7.86592C41.0616 8.11173 41.4582 8.29609 41.4582 8.87989C41.4582 9.43296 41.0006 9.67877 40.299 9.67877ZM45.119 7.62011V7.65084C45.2105 8.91061 46.2782 9.58659 47.3765 9.58659C48.3527 9.58659 49.0238 9.37151 49.7254 8.91061V10.2933C49.0848 10.7235 48.1696 10.9385 47.2544 10.9385C45.058 10.9385 43.5937 9.55587 43.5937 7.31285C43.5937 5.06983 45.058 3.59497 46.9799 3.59497C49.0238 3.59497 50 4.9162 50 6.82123V7.62011H45.119ZM46.9494 4.9162C47.9561 4.9162 48.5052 5.53073 48.5357 6.60615H45.18C45.3935 5.56145 46.0342 4.9162 46.9494 4.9162Z" fill="#002484"/>
</svg>
