<svg width="32" height="36" viewBox="0 0 32 36" fill="none" xmlns="http://www.w3.org/2000/svg">
<path d="M21.2297 17.1C21.2297 18.198 20.4069 19.098 19.3646 19.098C18.3406 19.098 17.4994 18.198 17.4994 17.1C17.4994 16.002 18.3223 15.102 19.3646 15.102C20.4069 15.102 21.2297 16.002 21.2297 17.1ZM12.6903 15.102C11.648 15.102 10.8251 16.002 10.8251 17.1C10.8251 18.198 11.6663 19.098 12.6903 19.098C13.7326 19.098 14.5554 18.198 14.5554 17.1C14.5737 16.002 13.7326 15.102 12.6903 15.102ZM32 3.708V36C27.3933 31.9926 28.8666 33.3191 23.5154 28.422L24.4846 31.752H3.74857C1.68229 31.752 0 30.096 0 28.044V3.708C0 1.656 1.68229 0 3.74857 0H28.2514C30.3177 0 32 1.656 32 3.708ZM26.7886 20.772C26.7886 14.976 24.1554 10.278 24.1554 10.278C21.5223 8.334 19.0171 8.388 19.0171 8.388L18.7611 8.676C21.8697 9.612 23.3143 10.962 23.3143 10.962C18.9706 8.61856 13.8683 8.61813 9.65486 10.44C8.97829 10.746 8.576 10.962 8.576 10.962C8.576 10.962 10.0937 9.54 13.3851 8.604L13.2023 8.388C13.2023 8.388 10.6971 8.334 8.064 10.278C8.064 10.278 5.43086 14.976 5.43086 20.772C5.43086 20.772 6.96686 23.382 11.008 23.508C11.008 23.508 11.6846 22.698 12.2331 22.014C9.91086 21.33 9.03314 19.89 9.03314 19.89C9.30214 20.0753 9.74572 20.3156 9.78286 20.34C12.8693 22.0414 17.2534 22.5989 21.1931 20.97C21.8331 20.736 22.5463 20.394 23.296 19.908C23.296 19.908 22.3817 21.384 19.9863 22.05C20.5349 22.734 21.1931 23.508 21.1931 23.508C25.2343 23.382 26.7886 20.772 26.7886 20.772Z" fill="#AF5FFF"/>
</svg>
