<svg width="32" height="32" viewBox="0 0 32 32" fill="none" xmlns="http://www.w3.org/2000/svg">
<rect width="31.2667" height="31.2667" rx="10" fill="#CEB5EF"/>
<path fill-rule="evenodd" clip-rule="evenodd" d="M23.2265 13.4C23.2265 13.1631 23.1324 12.9359 22.9648 12.7684C22.7973 12.6008 22.5701 12.5067 22.3332 12.5067H9.82648C9.58956 12.5067 9.36235 12.6008 9.19482 12.7684C9.02728 12.9359 8.93315 13.1631 8.93315 13.4V20.5467C8.93315 20.7836 9.02728 21.0107 9.19482 21.1783C9.36235 21.3458 9.58956 21.44 9.82648 21.44H11.6132C11.8501 21.44 12.0773 21.3458 12.2448 21.1783C12.4124 21.0107 12.5065 20.7836 12.5065 20.5467C12.5065 20.3097 12.6006 20.0826 12.7681 19.915C12.9357 19.7475 13.1629 19.6533 13.3998 19.6533H18.7598C18.9967 19.6533 19.224 19.7475 19.3915 19.915C19.559 20.0826 19.6532 20.3097 19.6532 20.5467C19.6532 20.7836 19.7473 21.0107 19.9148 21.1783C20.0823 21.3458 20.3096 21.44 20.5465 21.44H22.3332C22.5701 21.44 22.7973 21.3458 22.9648 21.1783C23.1324 21.0107 23.2265 20.7836 23.2265 20.5467V13.4ZM25.0132 12.5067V21.44C25.0132 21.9138 24.8249 22.3681 24.4898 22.7032C24.1548 23.0383 23.7003 23.2267 23.2265 23.2267H19.6532C19.1793 23.2267 18.7249 23.0383 18.3898 22.7032V22.7032C17.8418 22.1553 17.2383 21.44 16.4634 21.44H15.6962C14.9213 21.44 14.3178 22.1553 13.7698 22.7032V22.7032C13.4348 23.0383 12.9803 23.2267 12.5065 23.2267H8.93315C8.4593 23.2267 8.00485 23.0383 7.66979 22.7032C7.33472 22.3681 7.14648 21.9138 7.14648 21.44V12.5067C7.14648 12.0328 7.33472 11.5785 7.66979 11.2434C8.00485 10.9084 8.4593 10.72 8.93315 10.72H13.3998C14.3866 10.72 15.1865 9.92007 15.1865 8.93332V8.93332C15.1865 8.45947 15.3747 8.00515 15.7098 7.67009C16.0449 7.33502 16.4993 7.14665 16.9732 7.14665H18.7598C18.9967 7.14665 19.224 7.05247 19.3915 6.88493C19.559 6.7174 19.6532 6.49025 19.6532 6.25332V6.25332C19.6532 5.75994 20.0531 5.35999 20.5465 5.35999V5.35999C21.0399 5.35999 21.4398 5.75994 21.4398 6.25332V7.14665C21.4398 7.62051 21.2516 8.07482 20.9165 8.40988C20.5815 8.74495 20.127 8.93332 19.6532 8.93332H17.8665C17.6296 8.93332 17.4023 9.0275 17.2348 9.19504C17.0673 9.36257 16.9732 9.58973 16.9732 9.82665V9.82665C16.9732 10.32 17.3731 10.72 17.8665 10.72H23.2265C23.7003 10.72 24.1548 10.9084 24.4898 11.2434C24.8249 11.5785 25.0132 12.0328 25.0132 12.5067ZM20.5465 14.2933H18.7598C18.5229 14.2933 18.2957 14.3875 18.1281 14.555C17.9606 14.7226 17.8665 14.9497 17.8665 15.1867V16.9733C17.8665 17.2102 17.9606 17.4374 18.1281 17.6049C18.2957 17.7725 18.5229 17.8667 18.7598 17.8667H20.5465C20.7834 17.8667 21.0106 17.7725 21.1782 17.6049C21.3457 17.4374 21.4398 17.2102 21.4398 16.9733V15.1867C21.4398 14.9497 21.3457 14.7226 21.1782 14.555C21.0106 14.3875 20.7834 14.2933 20.5465 14.2933ZM14.2932 15.1867V16.9733C14.2932 17.2102 14.199 17.4374 14.0315 17.6049C13.864 17.7725 13.6367 17.8667 13.3998 17.8667H11.6132C11.3762 17.8667 11.149 17.7725 10.9815 17.6049C10.8139 17.4374 10.7198 17.2102 10.7198 16.9733V15.1867C10.7198 14.9497 10.8139 14.7226 10.9815 14.555C11.149 14.3875 11.3762 14.2933 11.6132 14.2933H13.3998C13.6367 14.2933 13.864 14.3875 14.0315 14.555C14.199 14.7226 14.2932 14.9497 14.2932 15.1867Z" fill="#592D92"/>
</svg>
