<svg width="20" height="20" viewBox="0 0 20 20" fill="none" xmlns="http://www.w3.org/2000/svg">
<path fill-rule="evenodd" clip-rule="evenodd" d="M11.1875 14.875C11.1875 15.4963 10.6838 16 10.0625 16C9.44118 16 8.9375 15.4963 8.9375 14.875C8.9375 14.2537 9.44118 13.75 10.0625 13.75C10.6838 13.75 11.1875 14.2537 11.1875 14.875ZM10.0625 4.75C7.99438 4.75 6.3125 6.26406 6.3125 8.125V8.5C6.3125 8.91421 6.64829 9.25 7.0625 9.25C7.47671 9.25 7.8125 8.91421 7.8125 8.5V8.125C7.8125 7.09375 8.82219 6.25 10.0625 6.25C11.3028 6.25 12.3125 7.09375 12.3125 8.125C12.3125 9.15625 11.3028 10 10.0625 10C9.64829 10 9.3125 10.3358 9.3125 10.75V11.5C9.3125 11.9142 9.64829 12.25 10.0625 12.25C10.4767 12.25 10.8125 11.9142 10.8125 11.5V11.4325C12.5225 11.1184 13.8125 9.75438 13.8125 8.125C13.8125 6.26406 12.1306 4.75 10.0625 4.75ZM19.8125 10C19.8125 15.3848 15.4473 19.75 10.0625 19.75C4.67772 19.75 0.3125 15.3848 0.3125 10C0.3125 4.61522 4.67772 0.25 10.0625 0.25C15.4449 0.255684 19.8068 4.61758 19.8125 10ZM18.3125 10C18.3125 5.44365 14.6188 1.75 10.0625 1.75C5.50615 1.75 1.8125 5.44365 1.8125 10C1.8125 14.5563 5.50615 18.25 10.0625 18.25C14.6167 18.2448 18.3073 14.5542 18.3125 10Z" fill="white"/>
</svg>
