<svg width="32" height="33" viewBox="0 0 32 33" fill="none" xmlns="http://www.w3.org/2000/svg">
<rect x="0.186584" y="0.866699" width="31.2667" height="31.2667" rx="10" fill="#E2FFC4"/>
<path d="M21.8008 8.7262L10.8008 8.7262C9.97271 8.7262 9.30083 9.39807 9.30083 10.2262L9.30083 23.2262C9.30083 24.0543 9.97271 24.7262 10.8008 24.7262H21.8008C22.629 24.7262 23.3008 24.0543 23.3008 23.2262V10.2262C23.3008 9.39807 22.629 8.7262 21.8008 8.7262ZM16.3008 23.7262C15.7477 23.7262 15.3008 23.2793 15.3008 22.7262C15.3008 22.1731 15.7477 21.7262 16.3008 21.7262C16.854 21.7262 17.3008 22.1731 17.3008 22.7262C17.3008 23.2793 16.854 23.7262 16.3008 23.7262ZM21.8008 20.3512C21.8008 20.5574 21.6321 20.7262 21.4258 20.7262H11.1758C10.9696 20.7262 10.8008 20.5574 10.8008 20.3512L10.8008 10.6012C10.8008 10.3949 10.9696 10.2262 11.1758 10.2262L21.4258 10.2262C21.6321 10.2262 21.8008 10.3949 21.8008 10.6012V20.3512Z" fill="#004F0D"/>
</svg>
