<svg width="48" height="48" viewBox="0 0 48 48" fill="none" xmlns="http://www.w3.org/2000/svg">
<g clip-path="url(#clip0_206_2370)">
<path d="M17.325 41.325C20.175 38.325 20.1 33.6 17.175 30.75C14.25 27.975 9.675 27.975 6.75 30.75C3.75 33.6 0 48 0 48C0 48 14.4 44.25 17.325 41.325Z" fill="url(#paint0_linear_206_2370)"/>
<path d="M27.7496 33.75L26.5496 34.95C25.9496 35.55 25.0496 35.55 24.4496 34.95L13.0496 23.55C12.4496 22.95 12.4496 22.05 13.0496 21.45L14.2496 20.25L27.7496 33.75Z" fill="url(#paint1_linear_206_2370)"/>
<path d="M48 0C48 8.625 44.55 16.95 38.475 23.025L27.75 33.75L14.25 20.25L24.9 9.525C31.05 3.45 39.375 0 48 0Z" fill="url(#paint2_linear_206_2370)"/>
<path d="M17.25 36C18.525 34.35 18.15 32.025 16.5 30.75C15.15 29.775 13.35 29.775 12 30.75C10.5 32.25 8.25 39.75 8.25 39.75C8.25 39.75 15.825 37.5 17.25 36Z" fill="url(#paint3_linear_206_2370)"/>
<path d="M24.0002 10.5H22.8002C16.3502 10.5 10.2002 13.05 5.6252 17.625C5.1002 18.15 5.1002 18.975 5.6252 19.425C5.9252 19.725 6.4502 19.875 6.9002 19.725C9.3002 19.05 11.9252 19.2 14.2502 20.175L24.0002 10.5Z" fill="url(#paint4_linear_206_2370)"/>
<path d="M37.5002 24V25.2C37.5002 31.65 34.9502 37.8 30.3752 42.375C29.8502 42.9 29.0252 42.9 28.5752 42.375C28.2752 42.075 28.1252 41.55 28.2752 41.1C28.9502 38.7 28.8002 36.075 27.8252 33.75L37.5002 24Z" fill="url(#paint5_linear_206_2370)"/>
<path d="M48.0002 0C48.0002 3 47.5502 6 46.7252 8.925C42.7502 8.325 39.6752 5.25 39.0752 1.275C42.0002 0.45 45.0002 0 48.0002 0Z" fill="url(#paint6_linear_206_2370)"/>
<path d="M35.25 17.25C37.7353 17.25 39.75 15.2353 39.75 12.75C39.75 10.2647 37.7353 8.25 35.25 8.25C32.7647 8.25 30.75 10.2647 30.75 12.75C30.75 15.2353 32.7647 17.25 35.25 17.25Z" fill="url(#paint7_linear_206_2370)"/>
<path d="M35.25 18C32.325 18 30 15.675 30 12.75C30 9.825 32.325 7.5 35.25 7.5C38.175 7.5 40.5 9.825 40.5 12.75C40.5 15.675 38.175 18 35.25 18ZM35.25 9C33.15 9 31.5 10.65 31.5 12.75C31.5 14.85 33.15 16.5 35.25 16.5C37.35 16.5 39 14.85 39 12.75C39 10.65 37.35 9 35.25 9Z" fill="url(#paint8_linear_206_2370)"/>
<path d="M17.25 32.25C16.875 32.25 16.5 32.1 16.2 31.8C15.6 31.2 15.6 30.3 16.2 29.7L26.7 19.2C27.3 18.6 28.2 18.6 28.8 19.2C29.4 19.8 29.4 20.7 28.8 21.3L18.3 31.8C18 32.1 17.625 32.25 17.25 32.25Z" fill="url(#paint9_linear_206_2370)"/>
</g>
<defs>
<linearGradient id="paint0_linear_206_2370" x1="0" y1="38.2957" x2="19.5" y2="38.2957" gradientUnits="userSpaceOnUse">
<stop stop-color="#E9A254"/>
<stop offset="1" stop-color="#F4BB79"/>
</linearGradient>
<linearGradient id="paint1_linear_206_2370" x1="12.6206" y1="27.8332" x2="27.7871" y2="27.8332" gradientUnits="userSpaceOnUse">
<stop stop-color="#474F72"/>
<stop offset="1" stop-color="#878C9F"/>
</linearGradient>
<linearGradient id="paint2_linear_206_2370" x1="31.1437" y1="33.7125" x2="31.1437" y2="0" gradientUnits="userSpaceOnUse">
<stop stop-color="#D4D8E1"/>
<stop offset="1" stop-color="#F3F4F5"/>
</linearGradient>
<linearGradient id="paint3_linear_206_2370" x1="8.25" y1="34.875" x2="18.375" y2="34.875" gradientUnits="userSpaceOnUse">
<stop stop-color="#FBCC88"/>
<stop offset="1" stop-color="#FFE5C3"/>
</linearGradient>
<linearGradient id="paint4_linear_206_2370" x1="5.2622" y1="15.375" x2="24.0002" y2="15.375" gradientUnits="userSpaceOnUse">
<stop stop-color="#DA5466"/>
<stop offset="1" stop-color="#F4929C"/>
</linearGradient>
<linearGradient id="paint5_linear_206_2370" x1="32.6252" y1="42.738" x2="32.6252" y2="24" gradientUnits="userSpaceOnUse">
<stop stop-color="#DA5466"/>
<stop offset="1" stop-color="#F4929C"/>
</linearGradient>
<linearGradient id="paint6_linear_206_2370" x1="43.5452" y1="8.91" x2="43.5452" y2="0" gradientUnits="userSpaceOnUse">
<stop stop-color="#DA5466"/>
<stop offset="1" stop-color="#F4929C"/>
</linearGradient>
<linearGradient id="paint7_linear_206_2370" x1="30.75" y1="12.75" x2="39.75" y2="12.75" gradientUnits="userSpaceOnUse">
<stop stop-color="#9DD5DF"/>
<stop offset="1" stop-color="#C3E1F5"/>
</linearGradient>
<linearGradient id="paint8_linear_206_2370" x1="35.25" y1="18" x2="35.25" y2="7.5" gradientUnits="userSpaceOnUse">
<stop stop-color="#949AAF"/>
<stop offset="1" stop-color="#C6CCDA"/>
</linearGradient>
<linearGradient id="paint9_linear_206_2370" x1="22.5" y1="32.25" x2="22.5" y2="18.75" gradientUnits="userSpaceOnUse">
<stop stop-color="#DA5466"/>
<stop offset="1" stop-color="#F4929C"/>
</linearGradient>
<clipPath id="clip0_206_2370">
<rect width="48" height="48" fill="white"/>
</clipPath>
</defs>
</svg>
