<svg width="32" height="33" viewBox="0 0 32 33" fill="none" xmlns="http://www.w3.org/2000/svg">
<rect x="0.186508" y="0.866699" width="31.2667" height="31.2667" rx="10" fill="#FFEECD"/>
<g clip-path="url(#clip0_34_320)">
<path d="M8.00786 22.6821V24.1832C8.00786 25.4242 11.0313 26.4332 14.7579 26.4332C18.4844 26.4332 21.5079 25.4242 21.5079 24.1832V22.6821C20.0559 23.7051 17.4016 24.1832 14.7579 24.1832C12.1141 24.1832 9.45981 23.7051 8.00786 22.6821ZM19.2579 12.9332C22.9844 12.9332 26.0079 11.9242 26.0079 10.6832C26.0079 9.44221 22.9844 8.43323 19.2579 8.43323C15.5313 8.43323 12.5079 9.44221 12.5079 10.6832C12.5079 11.9242 15.5313 12.9332 19.2579 12.9332ZM8.00786 18.9942V20.8082C8.00786 22.0492 11.0313 23.0582 14.7579 23.0582C18.4844 23.0582 21.5079 22.0492 21.5079 20.8082V18.9942C20.0559 20.1895 17.3981 20.8082 14.7579 20.8082C12.1176 20.8082 9.45981 20.1895 8.00786 18.9942ZM22.6329 19.3809C24.6473 18.9906 26.0079 18.2664 26.0079 17.4332V15.9321C25.1922 16.5086 23.9934 16.9024 22.6329 17.1449V19.3809ZM14.7579 14.0582C11.0313 14.0582 8.00786 15.3168 8.00786 16.8707C8.00786 18.4246 11.0313 19.6832 14.7579 19.6832C18.4844 19.6832 21.5079 18.4246 21.5079 16.8707C21.5079 15.3168 18.4844 14.0582 14.7579 14.0582ZM22.4676 16.0375C24.577 15.6578 26.0079 14.9125 26.0079 14.0582V12.5571C24.7598 13.4395 22.6153 13.9141 20.3582 14.0266C21.3954 14.5293 22.1582 15.2043 22.4676 16.0375Z" fill="#FFA800"/>
</g>
<defs>
<clipPath id="clip0_34_320">
<rect width="18" height="18" fill="white" transform="translate(8.00786 8.43323)"/>
</clipPath>
</defs>
</svg>
