<svg width="1280" height="670" viewBox="0 0 1280 670" fill="none" xmlns="http://www.w3.org/2000/svg">
<path d="M838.586 89.06L837.796 89.2224L837.508 89.9751L837.345 89.1854L836.593 88.8967L837.382 88.7344L837.671 87.9817L837.833 88.7714L838.586 89.06Z" fill="white"/>
<path d="M1047.18 232.603L1046.39 232.765L1046.1 233.518L1045.94 232.728L1045.19 232.439L1045.98 232.277L1046.27 231.524L1046.43 232.314L1047.18 232.603Z" fill="white"/>
<path d="M767.168 184.519L766.378 184.682L766.09 185.434L765.927 184.645L765.175 184.356L765.964 184.194L766.253 183.441L766.415 184.231L767.168 184.519Z" fill="white"/>
<path d="M571.299 96.1311L570.51 96.2935L570.221 97.0461L570.059 96.2565L569.306 95.9678L570.096 95.8055L570.384 95.0528L570.547 95.8424L571.299 96.1311Z" fill="white"/>
<path d="M1004.05 509.081L1003.26 509.244L1002.97 509.996L1002.81 509.207L1002.06 508.918L1002.85 508.756L1003.13 508.003L1003.3 508.793L1004.05 509.081Z" fill="white"/>
<path d="M1279.82 506.253L1279.03 506.415L1278.74 507.168L1278.58 506.378L1277.83 506.09L1278.62 505.927L1278.91 505.175L1279.07 505.964L1279.82 506.253Z" fill="white"/>
<path d="M912.832 574.842L912.042 575.005L911.754 575.757L911.591 574.968L910.839 574.679L911.628 574.517L911.917 573.764L912.079 574.554L912.832 574.842Z" fill="white"/>
<path d="M776.36 326.648L775.571 326.81L775.282 327.563L775.12 326.773L774.367 326.485L775.157 326.322L775.445 325.57L775.608 326.359L776.36 326.648Z" fill="white"/>
<path d="M361.289 446.149L360.499 446.311L360.211 447.064L360.048 446.274L359.296 445.986L360.085 445.823L360.374 445.071L360.536 445.86L361.289 446.149Z" fill="white"/>
<path d="M270.072 193.712L269.282 193.874L268.994 194.627L268.831 193.837L268.079 193.549L268.868 193.386L269.157 192.634L269.319 193.423L270.072 193.712Z" fill="white"/>
<path d="M721.913 201.49L721.124 201.652L720.835 202.405L720.673 201.615L719.92 201.327L720.71 201.164L720.998 200.412L721.161 201.201L721.913 201.49Z" fill="white"/>
<path d="M1120.72 604.541L1119.93 604.703L1119.64 605.456L1119.48 604.666L1118.73 604.378L1119.52 604.215L1119.81 603.463L1119.97 604.252L1120.72 604.541Z" fill="white"/>
<path d="M762.925 359.882L762.136 360.044L761.847 360.797L761.685 360.007L760.932 359.719L761.722 359.556L762.01 358.804L762.173 359.593L762.925 359.882Z" fill="white"/>
<path d="M1044.35 385.338L1043.56 385.5L1043.28 386.253L1043.11 385.463L1042.36 385.174L1043.15 385.012L1043.44 384.259L1043.6 385.049L1044.35 385.338Z" fill="white"/>
<path d="M224.11 293.414L223.321 293.576L223.032 294.329L222.869 293.539L222.117 293.251L222.906 293.088L223.195 292.336L223.357 293.125L224.11 293.414Z" fill="white"/>
<path d="M420.686 62.8971L419.896 63.0594L419.607 63.8121L419.445 63.0225L418.692 62.7338L419.482 62.5714L419.771 61.8188L419.933 62.6084L420.686 62.8971Z" fill="white"/>
<path d="M818.08 444.735L817.29 444.897L817.001 445.65L816.839 444.86L816.086 444.571L816.876 444.409L817.165 443.656L817.327 444.446L818.08 444.735Z" fill="white"/>
<path d="M603.119 433.421L602.33 433.583L602.041 434.336L601.879 433.546L601.126 433.258L601.916 433.095L602.204 432.343L602.367 433.132L603.119 433.421Z" fill="white"/>
<path d="M629.908 557.454L628.329 557.779L627.751 559.284L627.426 557.705L625.921 557.128L627.5 556.803L628.078 555.298L628.402 556.877L629.908 557.454Z" fill="white"/>
<path d="M575.125 262.255L573.545 262.58L572.968 264.085L572.643 262.506L571.138 261.928L572.717 261.604L573.295 260.098L573.619 261.677L575.125 262.255Z" fill="white"/>
<path d="M1201.62 481.458L1200.04 481.783L1199.46 483.288L1199.14 481.709L1197.63 481.131L1199.21 480.807L1199.79 479.301L1200.12 480.881L1201.62 481.458Z" fill="white"/>
<path d="M1125.96 227.607L1124.38 227.931L1123.8 229.437L1123.48 227.857L1121.97 227.28L1123.55 226.955L1124.13 225.45L1124.46 227.029L1125.96 227.607Z" fill="white"/>
<path d="M969.69 75.5787L968.111 75.9034L967.534 77.4087L967.209 75.8295L965.704 75.2521L967.283 74.9274L967.86 73.4221L968.185 75.0013L969.69 75.5787Z" fill="white"/>
<path d="M381.377 279.225L379.798 279.55L379.221 281.055L378.896 279.476L377.391 278.899L378.97 278.574L379.547 277.069L379.872 278.648L381.377 279.225Z" fill="white"/>
<path d="M134.597 479.337L133.018 479.661L132.44 481.167L132.116 479.587L130.61 479.01L132.19 478.685L132.767 477.18L133.092 478.759L134.597 479.337Z" fill="white"/>
<path d="M321.98 136.39L320.401 136.715L319.824 138.22L319.499 136.641L317.994 136.063L319.573 135.739L320.15 134.233L320.475 135.812L321.98 136.39Z" fill="white"/>
<path d="M92.8778 349.936L91.2985 350.261L90.7211 351.766L90.3965 350.187L88.8911 349.609L90.4704 349.285L91.0478 347.779L91.3724 349.359L92.8778 349.936Z" fill="white"/>
<path d="M187.581 136.762L187.138 137.436L187.466 138.172L186.793 137.728L186.056 138.056L186.5 137.383L186.172 136.647L186.845 137.091L187.581 136.762Z" fill="white"/>
<path d="M70.5815 202.762L70.1379 203.436L70.466 204.172L69.7928 203.728L69.0565 204.056L69.5 203.383L69.172 202.647L69.8451 203.091L70.5815 202.762Z" fill="white"/>
<path d="M88.5815 97.7625L88.1379 98.4356L88.466 99.172L87.7928 98.7284L87.0565 99.0565L87.5 98.3834L87.172 97.647L87.8451 98.0906L88.5815 97.7625Z" fill="white"/>
<path d="M33.5815 122.762L33.1379 123.436L33.466 124.172L32.7928 123.728L32.0565 124.056L32.5 123.383L32.172 122.647L32.8451 123.091L33.5815 122.762Z" fill="white"/>
<path d="M381.581 185.762L381.138 186.436L381.466 187.172L380.793 186.728L380.056 187.056L380.5 186.383L380.172 185.647L380.845 186.091L381.581 185.762Z" fill="white"/>
<path d="M206.581 81.7625L206.138 82.4356L206.466 83.172L205.793 82.7284L205.056 83.0565L205.5 82.3834L205.172 81.647L205.845 82.0906L206.581 81.7625Z" fill="white"/>
<path d="M630.581 139.762L630.138 140.436L630.466 141.172L629.793 140.728L629.056 141.056L629.5 140.383L629.172 139.647L629.845 140.091L630.581 139.762Z" fill="white"/>
<path d="M398.581 303.762L398.138 304.436L398.466 305.172L397.793 304.728L397.056 305.056L397.5 304.383L397.172 303.647L397.845 304.091L398.581 303.762Z" fill="white"/>
<path d="M205.581 224.762L205.138 225.436L205.466 226.172L204.793 225.728L204.056 226.056L204.5 225.383L204.172 224.647L204.845 225.091L205.581 224.762Z" fill="white"/>
<path d="M197.581 379.762L197.138 380.436L197.466 381.172L196.793 380.728L196.056 381.056L196.5 380.383L196.172 379.647L196.845 380.091L197.581 379.762Z" fill="white"/>
<path d="M795.581 365.762L795.138 366.436L795.466 367.172L794.793 366.728L794.056 367.056L794.5 366.383L794.172 365.647L794.845 366.091L795.581 365.762Z" fill="white"/>
<path d="M988.581 168.762L988.138 169.436L988.466 170.172L987.793 169.728L987.056 170.056L987.5 169.383L987.172 168.647L987.845 169.091L988.581 168.762Z" fill="white"/>
<path d="M1263.58 344.762L1263.14 345.436L1263.47 346.172L1262.79 345.728L1262.06 346.056L1262.5 345.383L1262.17 344.647L1262.85 345.091L1263.58 344.762Z" fill="white"/>
<path d="M1137.58 658.762L1137.14 659.436L1137.47 660.172L1136.79 659.728L1136.06 660.056L1136.5 659.383L1136.17 658.647L1136.85 659.091L1137.58 658.762Z" fill="white"/>
<path d="M777.581 476.762L777.138 477.436L777.466 478.172L776.793 477.728L776.056 478.056L776.5 477.383L776.172 476.647L776.845 477.091L777.581 476.762Z" fill="white"/>
<path d="M505.581 397.762L505.138 398.436L505.466 399.172L504.793 398.728L504.056 399.056L504.5 398.383L504.172 397.647L504.845 398.091L505.581 397.762Z" fill="white"/>
<path d="M53.5815 661.762L53.1379 662.436L53.466 663.172L52.7928 662.728L52.0565 663.056L52.5 662.383L52.172 661.647L52.8451 662.091L53.5815 661.762Z" fill="white"/>
<path d="M56.5815 314.762L56.1379 315.436L56.466 316.172L55.7928 315.728L55.0565 316.056L55.5 315.383L55.172 314.647L55.8451 315.091L56.5815 314.762Z" fill="white"/>
<path d="M378.581 347.762L378.138 348.436L378.466 349.172L377.793 348.728L377.056 349.056L377.5 348.383L377.172 347.647L377.845 348.091L378.581 347.762Z" fill="white"/>
<path d="M945.581 350.762L945.138 351.436L945.466 352.172L944.793 351.728L944.056 352.056L944.5 351.383L944.172 350.647L944.845 351.091L945.581 350.762Z" fill="white"/>
<path d="M836.581 585.762L836.138 586.436L836.466 587.172L835.793 586.728L835.056 587.056L835.5 586.383L835.172 585.647L835.845 586.091L836.581 585.762Z" fill="white"/>
<path d="M519.581 430.762L519.138 431.436L519.466 432.172L518.793 431.728L518.056 432.056L518.5 431.383L518.172 430.647L518.845 431.091L519.581 430.762Z" fill="white"/>
<path d="M736.581 249.762L736.138 250.436L736.466 251.172L735.793 250.728L735.056 251.056L735.5 250.383L735.172 249.647L735.845 250.091L736.581 249.762Z" fill="white"/>
<path d="M67.5815 462.762L67.1379 463.436L67.466 464.172L66.7928 463.728L66.0565 464.056L66.5 463.383L66.172 462.647L66.8451 463.091L67.5815 462.762Z" fill="white"/>
<path d="M618.581 451.762L618.138 452.436L618.466 453.172L617.793 452.728L617.056 453.056L617.5 452.383L617.172 451.647L617.845 452.091L618.581 451.762Z" fill="white"/>
<path d="M458.581 595.762L458.138 596.436L458.466 597.172L457.793 596.728L457.056 597.056L457.5 596.383L457.172 595.647L457.845 596.091L458.581 595.762Z" fill="white"/>
<path d="M1234.58 142.762L1234.14 143.436L1234.47 144.172L1233.79 143.728L1233.06 144.056L1233.5 143.383L1233.17 142.647L1233.85 143.091L1234.58 142.762Z" fill="white"/>
<path d="M989.581 580.762L989.138 581.436L989.466 582.172L988.793 581.728L988.056 582.056L988.5 581.383L988.172 580.647L988.845 581.091L989.581 580.762Z" fill="white"/>
<path d="M565.228 664.525L564.341 665.871L564.998 667.344L563.651 666.457L562.179 667.113L563.066 665.767L562.409 664.294L563.756 665.181L565.228 664.525Z" fill="white"/>
<path d="M317.753 494.525L316.866 495.871L317.523 497.344L316.176 496.457L314.704 497.113L315.591 495.767L314.935 494.294L316.281 495.181L317.753 494.525Z" fill="white"/>
<path d="M915.753 206.525L914.866 207.871L915.523 209.344L914.176 208.457L912.704 209.113L913.591 207.767L912.935 206.294L914.281 207.181L915.753 206.525Z" fill="white"/>
<path d="M682.753 80.525L681.866 81.8712L682.523 83.3439L681.176 82.4568L679.704 83.113L680.591 81.7667L679.935 80.294L681.281 81.1811L682.753 80.525Z" fill="white"/>
<path d="M464.753 83.525L463.866 84.8712L464.523 86.3439L463.176 85.4568L461.704 86.113L462.591 84.7667L461.935 83.294L463.281 84.1811L464.753 83.525Z" fill="white"/>
<path d="M1092.75 51.525L1091.87 52.8712L1092.52 54.3439L1091.18 53.4568L1089.7 54.113L1090.59 52.7667L1089.93 51.294L1091.28 52.1811L1092.75 51.525Z" fill="white"/>
<path d="M890.753 667.525L889.866 668.871L890.523 670.344L889.176 669.457L887.704 670.113L888.591 668.767L887.935 667.294L889.281 668.181L890.753 667.525Z" fill="white"/>
<path d="M192.753 643.525L191.866 644.871L192.523 646.344L191.176 645.457L189.704 646.113L190.591 644.767L189.935 643.294L191.281 644.181L192.753 643.525Z" fill="white"/>
<path d="M49.7534 584.525L48.8663 585.871L49.5225 587.344L48.1762 586.457L46.7035 587.113L47.5906 585.767L46.9344 584.294L48.2807 585.181L49.7534 584.525Z" fill="white"/>
<path d="M0.753429 351.525L-0.133674 352.871L0.522481 354.344L-0.823794 353.457L-2.2965 354.113L-1.4094 352.767L-2.06555 351.294L-0.719279 352.181L0.753429 351.525Z" fill="white"/>
<path d="M759.87 119.309L759.08 119.471L758.792 120.224L758.629 119.434L757.877 119.145L758.666 118.983L758.955 118.23L759.117 119.02L759.87 119.309Z" fill="white"/>
<path d="M630.469 83.2462L629.68 83.4085L629.391 84.1612L629.229 83.3716L628.476 83.0829L629.266 82.9206L629.554 82.1679L629.717 82.9575L630.469 83.2462Z" fill="white"/>
<path d="M717.444 21.7279L716.654 21.8903L716.365 22.6429L716.203 21.8533L715.45 21.5646L716.24 21.4023L716.529 20.6496L716.691 21.4392L717.444 21.7279Z" fill="white"/>
<path d="M660.875 0.514727L660.086 0.677069L659.797 1.42974L659.634 0.640118L658.882 0.351422L659.671 0.18908L659.96 -0.563586L660.122 0.226032L660.875 0.514727Z" fill="white"/>
<path d="M862.401 291.136L861.611 291.298L861.322 292.051L861.16 291.261L860.407 290.972L861.197 290.81L861.486 290.057L861.648 290.847L862.401 291.136Z" fill="white"/>
<path d="M812.196 93.8528L811.406 94.0151L811.118 94.7678L810.955 93.9782L810.203 93.6895L810.992 93.5272L811.281 92.7745L811.443 93.5641L812.196 93.8528Z" fill="white"/>
<path d="M1071 434.678L1070.21 434.841L1069.92 435.593L1069.76 434.804L1069 434.515L1069.79 434.353L1070.08 433.6L1070.24 434.39L1071 434.678Z" fill="white"/>
<path d="M790.983 386.595L790.193 386.757L789.904 387.51L789.742 386.72L788.989 386.432L789.779 386.269L790.068 385.517L790.23 386.306L790.983 386.595Z" fill="white"/>
<path d="M710.373 194.262L709.583 194.424L709.294 195.177L709.132 194.387L708.379 194.099L709.169 193.936L709.458 193.184L709.62 193.973L710.373 194.262Z" fill="white"/>
<path d="M595.114 298.207L594.325 298.369L594.036 299.122L593.873 298.332L593.121 298.043L593.91 297.881L594.199 297.128L594.361 297.918L595.114 298.207Z" fill="white"/>
<path d="M800.175 528.723L799.386 528.886L799.097 529.638L798.935 528.849L798.182 528.56L798.971 528.398L799.26 527.645L799.423 528.435L800.175 528.723Z" fill="white"/>
<path d="M385.104 648.225L384.314 648.387L384.025 649.14L383.863 648.35L383.11 648.061L383.9 647.899L384.189 647.146L384.351 647.936L385.104 648.225Z" fill="white"/>
<path d="M293.887 395.787L293.097 395.95L292.808 396.702L292.646 395.913L291.893 395.624L292.683 395.462L292.972 394.709L293.134 395.499L293.887 395.787Z" fill="white"/>
<path d="M541.374 152.543L540.584 152.705L540.296 153.458L540.133 152.668L539.381 152.379L540.17 152.217L540.459 151.464L540.621 152.254L541.374 152.543Z" fill="white"/>
<path d="M745.728 403.566L744.938 403.728L744.65 404.481L744.487 403.691L743.735 403.402L744.524 403.24L744.813 402.487L744.975 403.277L745.728 403.566Z" fill="white"/>
<path d="M786.74 561.957L785.951 562.12L785.662 562.873L785.499 562.083L784.747 561.794L785.536 561.632L785.825 560.879L785.987 561.669L786.74 561.957Z" fill="white"/>
<path d="M1068.17 587.413L1067.38 587.576L1067.09 588.328L1066.93 587.539L1066.18 587.25L1066.96 587.088L1067.25 586.335L1067.42 587.125L1068.17 587.413Z" fill="white"/>
<path d="M247.925 495.489L247.135 495.652L246.847 496.404L246.684 495.615L245.931 495.326L246.721 495.164L247.01 494.411L247.172 495.201L247.925 495.489Z" fill="white"/>
<path d="M444.501 264.973L443.711 265.135L443.422 265.888L443.26 265.098L442.507 264.809L443.297 264.647L443.585 263.894L443.748 264.684L444.501 264.973Z" fill="white"/>
<path d="M841.894 646.81L841.105 646.973L840.816 647.725L840.654 646.936L839.901 646.647L840.691 646.485L840.979 645.732L841.142 646.522L841.894 646.81Z" fill="white"/>
<path d="M626.934 635.497L626.144 635.659L625.856 636.412L625.693 635.622L624.941 635.333L625.73 635.171L626.019 634.418L626.181 635.208L626.934 635.497Z" fill="white"/>
<path d="M598.939 464.33L597.36 464.655L596.783 466.16L596.458 464.581L594.953 464.004L596.532 463.679L597.109 462.174L597.434 463.753L598.939 464.33Z" fill="white"/>
<path d="M1149.78 429.682L1148.2 430.007L1147.62 431.512L1147.29 429.933L1145.79 429.356L1147.37 429.031L1147.95 427.526L1148.27 429.105L1149.78 429.682Z" fill="white"/>
<path d="M993.505 277.654L991.926 277.979L991.348 279.484L991.024 277.905L989.518 277.328L991.098 277.003L991.675 275.498L992 277.077L993.505 277.654Z" fill="white"/>
<path d="M405.192 481.301L403.613 481.626L403.035 483.131L402.711 481.552L401.205 480.974L402.785 480.65L403.362 479.144L403.687 480.724L405.192 481.301Z" fill="white"/>
<path d="M345.795 338.465L344.216 338.79L343.638 340.295L343.314 338.716L341.808 338.139L343.388 337.814L343.965 336.309L344.29 337.888L345.795 338.465Z" fill="white"/>
<path d="M116.692 552.012L115.113 552.336L114.536 553.842L114.211 552.262L112.706 551.685L114.285 551.36L114.862 549.855L115.187 551.434L116.692 552.012Z" fill="white"/>
<path d="M475.903 139.061L474.323 139.386L473.746 140.891L473.421 139.312L471.916 138.735L473.495 138.41L474.073 136.905L474.397 138.484L475.903 139.061Z" fill="white"/>
<path d="M131.172 255.353L130.728 256.026L131.057 256.762L130.383 256.319L129.647 256.647L130.091 255.974L129.763 255.238L130.436 255.681L131.172 255.353Z" fill="white"/>
<path d="M322.581 312.762L322.138 313.436L322.466 314.172L321.793 313.728L321.056 314.056L321.5 313.383L321.172 312.647L321.845 313.091L322.581 312.762Z" fill="white"/>
<path d="M205.581 378.762L205.138 379.436L205.466 380.172L204.793 379.728L204.056 380.056L204.5 379.383L204.172 378.647L204.845 379.091L205.581 378.762Z" fill="white"/>
<path d="M223.581 273.762L223.138 274.436L223.466 275.172L222.793 274.728L222.056 275.056L222.5 274.383L222.172 273.647L222.845 274.091L223.581 273.762Z" fill="white"/>
<path d="M168.581 298.762L168.138 299.436L168.466 300.172L167.793 299.728L167.056 300.056L167.5 299.383L167.172 298.647L167.845 299.091L168.581 298.762Z" fill="white"/>
<path d="M516.581 361.762L516.138 362.436L516.466 363.172L515.793 362.728L515.056 363.056L515.5 362.383L515.172 361.647L515.845 362.091L516.581 361.762Z" fill="white"/>
<path d="M341.581 257.762L341.138 258.436L341.466 259.172L340.793 258.728L340.056 259.056L340.5 258.383L340.172 257.647L340.845 258.091L341.581 257.762Z" fill="white"/>
<path d="M765.581 315.762L765.138 316.436L765.466 317.172L764.793 316.728L764.056 317.056L764.5 316.383L764.172 315.647L764.845 316.091L765.581 315.762Z" fill="white"/>
<path d="M533.581 479.762L533.138 480.436L533.466 481.172L532.793 480.728L532.056 481.056L532.5 480.383L532.172 479.647L532.845 480.091L533.581 479.762Z" fill="white"/>
<path d="M340.581 400.762L340.138 401.436L340.466 402.172L339.793 401.728L339.056 402.056L339.5 401.383L339.172 400.647L339.845 401.091L340.581 400.762Z" fill="white"/>
<path d="M332.581 555.762L332.138 556.436L332.466 557.172L331.793 556.728L331.056 557.056L331.5 556.383L331.172 555.647L331.845 556.091L332.581 555.762Z" fill="white"/>
<path d="M930.581 541.762L930.138 542.436L930.466 543.172L929.793 542.728L929.056 543.056L929.5 542.383L929.172 541.647L929.845 542.091L930.581 541.762Z" fill="white"/>
<path d="M1123.58 344.762L1123.14 345.436L1123.47 346.172L1122.79 345.728L1122.06 346.056L1122.5 345.383L1122.17 344.647L1122.84 345.091L1123.58 344.762Z" fill="white"/>
<path d="M912.581 652.762L912.138 653.436L912.466 654.172L911.793 653.728L911.056 654.056L911.5 653.383L911.172 652.647L911.845 653.091L912.581 652.762Z" fill="white"/>
<path d="M640.581 573.762L640.138 574.436L640.466 575.172L639.793 574.728L639.056 575.056L639.5 574.383L639.172 573.647L639.845 574.091L640.581 573.762Z" fill="white"/>
<path d="M191.581 490.762L191.138 491.436L191.466 492.172L190.793 491.728L190.056 492.056L190.5 491.383L190.172 490.647L190.845 491.091L191.581 490.762Z" fill="white"/>
<path d="M513.581 523.762L513.138 524.436L513.466 525.172L512.793 524.728L512.056 525.056L512.5 524.383L512.172 523.647L512.845 524.091L513.581 523.762Z" fill="white"/>
<path d="M1080.58 526.762L1080.14 527.436L1080.47 528.172L1079.79 527.728L1079.06 528.056L1079.5 527.383L1079.17 526.647L1079.85 527.091L1080.58 526.762Z" fill="white"/>
<path d="M654.581 606.762L654.138 607.436L654.466 608.172L653.793 607.728L653.056 608.056L653.5 607.383L653.172 606.647L653.845 607.091L654.581 606.762Z" fill="white"/>
<path d="M871.581 425.762L871.138 426.436L871.466 427.172L870.793 426.728L870.056 427.056L870.5 426.383L870.172 425.647L870.845 426.091L871.581 425.762Z" fill="white"/>
<path d="M202.581 638.762L202.138 639.436L202.466 640.172L201.793 639.728L201.056 640.056L201.5 639.383L201.172 638.647L201.845 639.091L202.581 638.762Z" fill="white"/>
<path d="M753.581 627.762L753.138 628.436L753.466 629.172L752.793 628.728L752.056 629.056L752.5 628.383L752.172 627.647L752.845 628.091L753.581 627.762Z" fill="white"/>
<path d="M452.753 670.525L451.866 671.871L452.523 673.344L451.176 672.457L449.704 673.113L450.591 671.767L449.935 670.294L451.281 671.181L452.753 670.525Z" fill="white"/>
<path d="M1050.75 382.525L1049.87 383.871L1050.52 385.344L1049.18 384.457L1047.7 385.113L1048.59 383.767L1047.93 382.294L1049.28 383.181L1050.75 382.525Z" fill="white"/>
<path d="M817.753 256.525L816.866 257.871L817.523 259.344L816.176 258.457L814.704 259.113L815.591 257.767L814.935 256.294L816.281 257.181L817.753 256.525Z" fill="white"/>
<path d="M599.753 259.525L598.866 260.871L599.523 262.344L598.176 261.457L596.704 262.113L597.591 260.767L596.935 259.294L598.281 260.181L599.753 259.525Z" fill="white"/>
<path d="M1227.75 227.525L1226.87 228.871L1227.52 230.344L1226.18 229.457L1224.7 230.113L1225.59 228.767L1224.93 227.294L1226.28 228.181L1227.75 227.525Z" fill="white"/>
<path d="M135.753 527.525L134.866 528.871L135.523 530.344L134.176 529.457L132.704 530.113L133.591 528.767L132.935 527.294L134.281 528.181L135.753 527.525Z" fill="white"/>
</svg>
