<svg width="19" height="20" viewBox="0 0 19 20" fill="none" xmlns="http://www.w3.org/2000/svg">
<path d="M4.2958 9.70994C4.38876 9.80367 4.49936 9.87806 4.62122 9.92883C4.74308 9.9796 4.87379 10.0057 5.0058 10.0057C5.13781 10.0057 5.26852 9.9796 5.39038 9.92883C5.51223 9.87806 5.62284 9.80367 5.7158 9.70994C5.80953 9.61698 5.88392 9.50638 5.93469 9.38452C5.98546 9.26266 6.0116 9.13195 6.0116 8.99994C6.0116 8.86793 5.98546 8.73722 5.93469 8.61536C5.88392 8.4935 5.80953 8.3829 5.7158 8.28994L3.4158 5.99994H17.0058C17.271 5.99994 17.5254 5.89458 17.7129 5.70705C17.9004 5.51951 18.0058 5.26516 18.0058 4.99994C18.0058 4.73472 17.9004 4.48037 17.7129 4.29283C17.5254 4.1053 17.271 3.99994 17.0058 3.99994H3.4158L5.7158 1.70994C5.9041 1.52164 6.00989 1.26624 6.00989 0.999941C6.00989 0.73364 5.9041 0.478245 5.7158 0.289941C5.52749 0.101637 5.2721 -0.00415039 5.0058 -0.00415039C4.7395 -0.00415039 4.4841 0.101637 4.2958 0.289941L0.295798 4.28994C0.20207 4.3829 0.127676 4.49351 0.0769069 4.61536C0.0261382 4.73722 0 4.86793 0 4.99994C0 5.13195 0.0261382 5.26266 0.0769069 5.38452C0.127676 5.50638 0.20207 5.61698 0.295798 5.70994L4.2958 9.70994ZM13.7158 10.2899C13.5275 10.1016 13.2721 9.99585 13.0058 9.99585C12.7395 9.99585 12.4841 10.1016 12.2958 10.2899C12.1075 10.4782 12.0017 10.7336 12.0017 10.9999C12.0017 11.2662 12.1075 11.5216 12.2958 11.7099L14.5958 13.9999H1.0058C0.740582 13.9999 0.486228 14.1053 0.298692 14.2928C0.111155 14.4804 0.00579834 14.7347 0.00579834 14.9999C0.00579834 15.2652 0.111155 15.5195 0.298692 15.707C0.486228 15.8946 0.740582 15.9999 1.0058 15.9999H14.5958L12.2958 18.2899C12.2021 18.3829 12.1277 18.4935 12.0769 18.6154C12.0261 18.7372 12 18.8679 12 18.9999C12 19.132 12.0261 19.2627 12.0769 19.3845C12.1277 19.5064 12.2021 19.617 12.2958 19.7099C12.3888 19.8037 12.4994 19.8781 12.6212 19.9288C12.7431 19.9796 12.8738 20.0057 13.0058 20.0057C13.1378 20.0057 13.2685 19.9796 13.3904 19.9288C13.5122 19.8781 13.6228 19.8037 13.7158 19.7099L17.7158 15.7099C17.8095 15.617 17.8839 15.5064 17.9347 15.3845C17.9855 15.2627 18.0116 15.132 18.0116 14.9999C18.0116 14.8679 17.9855 14.7372 17.9347 14.6154C17.8839 14.4935 17.8095 14.3829 17.7158 14.2899L13.7158 10.2899Z" fill="white"/>
</svg>
