<svg width="110" height="110" viewBox="0 0 110 110" fill="none" xmlns="http://www.w3.org/2000/svg">
<g filter="url(#filter0_d_17_289)">
<path d="M34.6875 26C32.1047 26 30 28.1047 30 30.6875V71.3125C30 73.8953 32.1047 76 34.6875 76H75.3125C77.8953 76 80 73.8953 80 71.3125V30.6875C80 28.1047 77.8953 26 75.3125 26H34.6875ZM34.6875 27.5625H75.3125C77.0578 27.5625 78.4375 28.9422 78.4375 30.6875V71.3125C78.4375 73.0578 77.0578 74.4375 75.3125 74.4375H34.6875C32.9422 74.4375 31.5625 73.0578 31.5625 71.3125V30.6875C31.5625 28.9422 32.9422 27.5625 34.6875 27.5625ZM35.8594 29.125C34.3594 29.125 33.125 30.3594 33.125 31.8594C33.125 33.3594 34.3594 34.5938 35.8594 34.5938C37.3594 34.5938 38.5938 33.3594 38.5938 31.8594C38.5938 30.3594 37.3594 29.125 35.8594 29.125ZM74.1406 29.125C72.6406 29.125 71.4062 30.3594 71.4062 31.8594C71.4062 33.3594 72.6406 34.5938 74.1406 34.5938C75.6406 34.5938 76.875 33.3594 76.875 31.8594C76.875 30.3594 75.6406 29.125 74.1406 29.125ZM35.8594 30.6875C36.5156 30.6875 37.0312 31.2031 37.0312 31.8594C37.0312 32.5156 36.5156 33.0312 35.8594 33.0312C35.2031 33.0312 34.6875 32.5156 34.6875 31.8594C34.6875 31.2031 35.2031 30.6875 35.8594 30.6875ZM49.5312 30.6875V35.375H47.9688C47.7615 35.375 47.5628 35.4573 47.4163 35.6038C47.2698 35.7503 47.1875 35.949 47.1875 36.1562V38.5H44.7453C43.5156 38.5 42.5 39.5156 42.5 40.7469V43.1875H40.1562C39.9659 43.1884 39.7825 43.2588 39.6404 43.3853C39.4982 43.5119 39.4072 43.6861 39.3844 43.875C39.3833 43.8802 39.3822 43.8854 39.3813 43.8906C39.38 43.9005 39.379 43.9104 39.3781 43.9203C39.3766 43.9354 39.3756 43.9505 39.375 43.9656C39.3749 43.9708 39.3749 43.976 39.375 43.9813V45.5312H34.6875V47.0938H39.375V48.6562H34.6875V50.2188H39.375V51.7812H34.6875V53.3438H39.375V54.9062H34.6875V56.4688H39.375V58.0437C39.375 58.2509 39.4573 58.4497 39.6038 58.5962C39.7503 58.7427 39.949 58.825 40.1562 58.825H42.5V61.2547C42.5 62.4844 43.5156 63.5 44.7469 63.5H47.1875V65.8438C47.1877 66.0087 47.2402 66.1693 47.3373 66.3026C47.4344 66.436 47.5712 66.5351 47.7281 66.5859C47.7533 66.594 47.7788 66.6008 47.8047 66.6063C47.856 66.6177 47.9084 66.624 47.9609 66.625H47.9688H49.5312V71.3125H51.0938V66.625H52.6562V71.3125H54.2188V66.625H55.7812V71.3125H57.3438V66.625H58.9062V71.3125H60.4688V66.625H62.0312C62.0573 66.6263 62.0833 66.6263 62.1094 66.625C62.1357 66.6211 62.1617 66.6159 62.1875 66.6094C62.364 66.5734 62.5226 66.4775 62.6365 66.338C62.7503 66.1984 62.8125 66.0239 62.8125 65.8438V63.5H65.2547C66.4844 63.5 67.5 62.4844 67.5 61.2531V58.825H69.8438L69.8313 58.8094C69.9346 58.811 70.0373 58.7921 70.1333 58.7538C70.2294 58.7155 70.3168 58.6585 70.3907 58.5861C70.4645 58.5137 70.5232 58.4274 70.5635 58.3322C70.6037 58.2369 70.6246 58.1346 70.625 58.0312V56.4688H75.3125V54.9062H70.625V53.3438H75.3125V51.7812H70.625V50.2188H75.3125V48.6562H70.625V47.0938H75.3125V45.5312H70.625V43.9688C70.625 43.7615 70.5427 43.5628 70.3962 43.4163C70.2497 43.2698 70.051 43.1875 69.8438 43.1875H67.5V40.7453C67.5 39.5156 66.4844 38.5 65.2531 38.5H62.8125V36.1562L62.8 36.1719C62.8003 36.1453 62.7993 36.1187 62.7969 36.0922C62.781 35.899 62.6938 35.7185 62.5523 35.586C62.4108 35.4534 62.2251 35.3782 62.0312 35.375H60.4688V30.6875H58.9062V35.375H57.3438V30.6875H55.7812V35.375H54.2188V30.6875H52.6562V35.375H51.0938V30.6875H49.5312ZM74.1406 30.6875C74.7969 30.6875 75.3125 31.2031 75.3125 31.8594C75.3125 32.5156 74.7969 33.0312 74.1406 33.0312C73.4844 33.0312 72.9688 32.5156 72.9688 31.8594C72.9688 31.2031 73.4844 30.6875 74.1406 30.6875ZM48.75 36.9375H61.25V38.5H48.75V36.9375ZM44.7453 40.0625H65.2547C65.6453 40.0625 65.9375 40.3547 65.9375 40.7469V43.9656C65.9374 43.9708 65.9374 43.976 65.9375 43.9813V61.2547C65.9375 61.6453 65.6453 61.9375 65.2531 61.9375H44.7469C44.6563 61.9401 44.5661 61.9242 44.4819 61.8907C44.3977 61.8572 44.3213 61.8069 44.2572 61.7428C44.1931 61.6787 44.1428 61.6023 44.1093 61.5181C44.0758 61.4339 44.0599 61.3437 44.0625 61.2531V40.7469C44.0625 40.3562 44.3531 40.0641 44.7469 40.0641L44.7453 40.0625ZM48.75 43.9688C48.5428 43.9688 48.3441 44.0511 48.1976 44.1976C48.0511 44.3441 47.9688 44.5428 47.9688 44.75C47.9688 44.9572 48.0511 45.1559 48.1976 45.3024C48.3441 45.4489 48.5428 45.5312 48.75 45.5312C48.9572 45.5312 49.1559 45.4489 49.3024 45.3024C49.4489 45.1559 49.5312 44.9572 49.5312 44.75C49.5312 44.5428 49.4489 44.3441 49.3024 44.1976C49.1559 44.0511 48.9572 43.9688 48.75 43.9688ZM51.875 43.9688C51.6678 43.9688 51.4691 44.0511 51.3226 44.1976C51.1761 44.3441 51.0938 44.5428 51.0938 44.75C51.0938 44.9572 51.1761 45.1559 51.3226 45.3024C51.4691 45.4489 51.6678 45.5312 51.875 45.5312C52.0822 45.5312 52.2809 45.4489 52.4274 45.3024C52.5739 45.1559 52.6562 44.9572 52.6562 44.75C52.6562 44.5428 52.5739 44.3441 52.4274 44.1976C52.2809 44.0511 52.0822 43.9688 51.875 43.9688ZM55 43.9688C54.7928 43.9688 54.5941 44.0511 54.4476 44.1976C54.3011 44.3441 54.2188 44.5428 54.2188 44.75C54.2188 44.9572 54.3011 45.1559 54.4476 45.3024C54.5941 45.4489 54.7928 45.5312 55 45.5312C55.2072 45.5312 55.4059 45.4489 55.5524 45.3024C55.6989 45.1559 55.7812 44.9572 55.7812 44.75C55.7812 44.5428 55.6989 44.3441 55.5524 44.1976C55.4059 44.0511 55.2072 43.9688 55 43.9688ZM58.125 43.9688C57.9178 43.9688 57.7191 44.0511 57.5726 44.1976C57.4261 44.3441 57.3438 44.5428 57.3438 44.75C57.3438 44.9572 57.4261 45.1559 57.5726 45.3024C57.7191 45.4489 57.9178 45.5312 58.125 45.5312C58.3322 45.5312 58.5309 45.4489 58.6774 45.3024C58.8239 45.1559 58.9062 44.9572 58.9062 44.75C58.9062 44.5428 58.8239 44.3441 58.6774 44.1976C58.5309 44.0511 58.3322 43.9688 58.125 43.9688ZM61.25 43.9688C61.0428 43.9688 60.8441 44.0511 60.6976 44.1976C60.5511 44.3441 60.4688 44.5428 60.4688 44.75C60.4688 44.9572 60.5511 45.1559 60.6976 45.3024C60.8441 45.4489 61.0428 45.5312 61.25 45.5312C61.4572 45.5312 61.6559 45.4489 61.8024 45.3024C61.9489 45.1559 62.0312 44.9572 62.0312 44.75C62.0312 44.5428 61.9489 44.3441 61.8024 44.1976C61.6559 44.0511 61.4572 43.9688 61.25 43.9688ZM40.9375 44.75H42.5V57.25H40.9375V44.75ZM67.5 44.75H69.0625V57.25H67.5V44.75ZM50.3125 47.0938C50.1053 47.0938 49.9066 47.1761 49.7601 47.3226C49.6136 47.4691 49.5312 47.6678 49.5312 47.875C49.5312 48.0822 49.6136 48.2809 49.7601 48.4274C49.9066 48.5739 50.1053 48.6562 50.3125 48.6562C50.5197 48.6562 50.7184 48.5739 50.8649 48.4274C51.0114 48.2809 51.0938 48.0822 51.0938 47.875C51.0938 47.6678 51.0114 47.4691 50.8649 47.3226C50.7184 47.1761 50.5197 47.0938 50.3125 47.0938ZM53.4375 47.0938C53.2303 47.0938 53.0316 47.1761 52.8851 47.3226C52.7386 47.4691 52.6562 47.6678 52.6562 47.875C52.6562 48.0822 52.7386 48.2809 52.8851 48.4274C53.0316 48.5739 53.2303 48.6562 53.4375 48.6562C53.6447 48.6562 53.8434 48.5739 53.9899 48.4274C54.1364 48.2809 54.2188 48.0822 54.2188 47.875C54.2188 47.6678 54.1364 47.4691 53.9899 47.3226C53.8434 47.1761 53.6447 47.0938 53.4375 47.0938ZM56.5625 47.0938C56.3553 47.0938 56.1566 47.1761 56.0101 47.3226C55.8636 47.4691 55.7812 47.6678 55.7812 47.875C55.7812 48.0822 55.8636 48.2809 56.0101 48.4274C56.1566 48.5739 56.3553 48.6562 56.5625 48.6562C56.7697 48.6562 56.9684 48.5739 57.1149 48.4274C57.2614 48.2809 57.3438 48.0822 57.3438 47.875C57.3438 47.6678 57.2614 47.4691 57.1149 47.3226C56.9684 47.1761 56.7697 47.0938 56.5625 47.0938ZM59.6875 47.0938C59.4803 47.0938 59.2816 47.1761 59.1351 47.3226C58.9886 47.4691 58.9062 47.6678 58.9062 47.875C58.9062 48.0822 58.9886 48.2809 59.1351 48.4274C59.2816 48.5739 59.4803 48.6562 59.6875 48.6562C59.8947 48.6562 60.0934 48.5739 60.2399 48.4274C60.3864 48.2809 60.4688 48.0822 60.4688 47.875C60.4688 47.6678 60.3864 47.4691 60.2399 47.3226C60.0934 47.1761 59.8947 47.0938 59.6875 47.0938ZM48.75 50.2188C48.5428 50.2188 48.3441 50.3011 48.1976 50.4476C48.0511 50.5941 47.9688 50.7928 47.9688 51C47.9688 51.2072 48.0511 51.4059 48.1976 51.5524C48.3441 51.6989 48.5428 51.7812 48.75 51.7812C48.9572 51.7812 49.1559 51.6989 49.3024 51.5524C49.4489 51.4059 49.5312 51.2072 49.5312 51C49.5312 50.7928 49.4489 50.5941 49.3024 50.4476C49.1559 50.3011 48.9572 50.2188 48.75 50.2188ZM51.875 50.2188C51.6678 50.2188 51.4691 50.3011 51.3226 50.4476C51.1761 50.5941 51.0938 50.7928 51.0938 51C51.0938 51.2072 51.1761 51.4059 51.3226 51.5524C51.4691 51.6989 51.6678 51.7812 51.875 51.7812C52.0822 51.7812 52.2809 51.6989 52.4274 51.5524C52.5739 51.4059 52.6562 51.2072 52.6562 51C52.6562 50.7928 52.5739 50.5941 52.4274 50.4476C52.2809 50.3011 52.0822 50.2188 51.875 50.2188ZM55 50.2188C54.7928 50.2188 54.5941 50.3011 54.4476 50.4476C54.3011 50.5941 54.2188 50.7928 54.2188 51C54.2188 51.2072 54.3011 51.4059 54.4476 51.5524C54.5941 51.6989 54.7928 51.7812 55 51.7812C55.2072 51.7812 55.4059 51.6989 55.5524 51.5524C55.6989 51.4059 55.7812 51.2072 55.7812 51C55.7812 50.7928 55.6989 50.5941 55.5524 50.4476C55.4059 50.3011 55.2072 50.2188 55 50.2188ZM58.125 50.2188C57.9178 50.2188 57.7191 50.3011 57.5726 50.4476C57.4261 50.5941 57.3438 50.7928 57.3438 51C57.3438 51.2072 57.4261 51.4059 57.5726 51.5524C57.7191 51.6989 57.9178 51.7812 58.125 51.7812C58.3322 51.7812 58.5309 51.6989 58.6774 51.5524C58.8239 51.4059 58.9062 51.2072 58.9062 51C58.9062 50.7928 58.8239 50.5941 58.6774 50.4476C58.5309 50.3011 58.3322 50.2188 58.125 50.2188ZM61.25 50.2188C61.0428 50.2188 60.8441 50.3011 60.6976 50.4476C60.5511 50.5941 60.4688 50.7928 60.4688 51C60.4688 51.2072 60.5511 51.4059 60.6976 51.5524C60.8441 51.6989 61.0428 51.7812 61.25 51.7812C61.4572 51.7812 61.6559 51.6989 61.8024 51.5524C61.9489 51.4059 62.0312 51.2072 62.0312 51C62.0312 50.7928 61.9489 50.5941 61.8024 50.4476C61.6559 50.3011 61.4572 50.2188 61.25 50.2188ZM50.3125 53.3438C50.1053 53.3438 49.9066 53.4261 49.7601 53.5726C49.6136 53.7191 49.5312 53.9178 49.5312 54.125C49.5312 54.3322 49.6136 54.5309 49.7601 54.6774C49.9066 54.8239 50.1053 54.9062 50.3125 54.9062C50.5197 54.9062 50.7184 54.8239 50.8649 54.6774C51.0114 54.5309 51.0938 54.3322 51.0938 54.125C51.0938 53.9178 51.0114 53.7191 50.8649 53.5726C50.7184 53.4261 50.5197 53.3438 50.3125 53.3438ZM53.4375 53.3438C53.2303 53.3438 53.0316 53.4261 52.8851 53.5726C52.7386 53.7191 52.6562 53.9178 52.6562 54.125C52.6562 54.3322 52.7386 54.5309 52.8851 54.6774C53.0316 54.8239 53.2303 54.9062 53.4375 54.9062C53.6447 54.9062 53.8434 54.8239 53.9899 54.6774C54.1364 54.5309 54.2188 54.3322 54.2188 54.125C54.2188 53.9178 54.1364 53.7191 53.9899 53.5726C53.8434 53.4261 53.6447 53.3438 53.4375 53.3438ZM56.5625 53.3438C56.3553 53.3438 56.1566 53.4261 56.0101 53.5726C55.8636 53.7191 55.7812 53.9178 55.7812 54.125C55.7812 54.3322 55.8636 54.5309 56.0101 54.6774C56.1566 54.8239 56.3553 54.9062 56.5625 54.9062C56.7697 54.9062 56.9684 54.8239 57.1149 54.6774C57.2614 54.5309 57.3438 54.3322 57.3438 54.125C57.3438 53.9178 57.2614 53.7191 57.1149 53.5726C56.9684 53.4261 56.7697 53.3438 56.5625 53.3438ZM59.6875 53.3438C59.4803 53.3438 59.2816 53.4261 59.1351 53.5726C58.9886 53.7191 58.9062 53.9178 58.9062 54.125C58.9062 54.3322 58.9886 54.5309 59.1351 54.6774C59.2816 54.8239 59.4803 54.9062 59.6875 54.9062C59.8947 54.9062 60.0934 54.8239 60.2399 54.6774C60.3864 54.5309 60.4688 54.3322 60.4688 54.125C60.4688 53.9178 60.3864 53.7191 60.2399 53.5726C60.0934 53.4261 59.8947 53.3438 59.6875 53.3438ZM48.75 56.4688C48.5428 56.4688 48.3441 56.5511 48.1976 56.6976C48.0511 56.8441 47.9688 57.0428 47.9688 57.25C47.9688 57.4572 48.0511 57.6559 48.1976 57.8024C48.3441 57.9489 48.5428 58.0312 48.75 58.0312C48.9572 58.0312 49.1559 57.9489 49.3024 57.8024C49.4489 57.6559 49.5312 57.4572 49.5312 57.25C49.5312 57.0428 49.4489 56.8441 49.3024 56.6976C49.1559 56.5511 48.9572 56.4688 48.75 56.4688ZM51.875 56.4688C51.6678 56.4688 51.4691 56.5511 51.3226 56.6976C51.1761 56.8441 51.0938 57.0428 51.0938 57.25C51.0938 57.4572 51.1761 57.6559 51.3226 57.8024C51.4691 57.9489 51.6678 58.0312 51.875 58.0312C52.0822 58.0312 52.2809 57.9489 52.4274 57.8024C52.5739 57.6559 52.6562 57.4572 52.6562 57.25C52.6562 57.0428 52.5739 56.8441 52.4274 56.6976C52.2809 56.5511 52.0822 56.4688 51.875 56.4688ZM55 56.4688C54.7928 56.4688 54.5941 56.5511 54.4476 56.6976C54.3011 56.8441 54.2188 57.0428 54.2188 57.25C54.2188 57.4572 54.3011 57.6559 54.4476 57.8024C54.5941 57.9489 54.7928 58.0312 55 58.0312C55.2072 58.0312 55.4059 57.9489 55.5524 57.8024C55.6989 57.6559 55.7812 57.4572 55.7812 57.25C55.7812 57.0428 55.6989 56.8441 55.5524 56.6976C55.4059 56.5511 55.2072 56.4688 55 56.4688ZM58.125 56.4688C57.9178 56.4688 57.7191 56.5511 57.5726 56.6976C57.4261 56.8441 57.3438 57.0428 57.3438 57.25C57.3438 57.4572 57.4261 57.6559 57.5726 57.8024C57.7191 57.9489 57.9178 58.0312 58.125 58.0312C58.3322 58.0312 58.5309 57.9489 58.6774 57.8024C58.8239 57.6559 58.9062 57.4572 58.9062 57.25C58.9062 57.0428 58.8239 56.8441 58.6774 56.6976C58.5309 56.5511 58.3322 56.4688 58.125 56.4688ZM61.25 56.4688C61.0428 56.4688 60.8441 56.5511 60.6976 56.6976C60.5511 56.8441 60.4688 57.0428 60.4688 57.25C60.4688 57.4572 60.5511 57.6559 60.6976 57.8024C60.8441 57.9489 61.0428 58.0312 61.25 58.0312C61.4572 58.0312 61.6559 57.9489 61.8024 57.8024C61.9489 57.6559 62.0312 57.4572 62.0312 57.25C62.0312 57.0428 61.9489 56.8441 61.8024 56.6976C61.6559 56.5511 61.4572 56.4688 61.25 56.4688ZM48.75 63.5H61.25V65.0625H48.75V63.5ZM35.8594 67.4062C34.3594 67.4062 33.125 68.6406 33.125 70.1406C33.125 71.6406 34.3594 72.875 35.8594 72.875C37.3594 72.875 38.5938 71.6406 38.5938 70.1406C38.5938 68.6406 37.3594 67.4062 35.8594 67.4062ZM74.1406 67.4062C72.6406 67.4062 71.4062 68.6406 71.4062 70.1406C71.4062 71.6406 72.6406 72.875 74.1406 72.875C75.6406 72.875 76.875 71.6406 76.875 70.1406C76.875 68.6406 75.6406 67.4062 74.1406 67.4062ZM35.8594 68.9688C36.5156 68.9688 37.0312 69.4844 37.0312 70.1406C37.0312 70.7969 36.5156 71.3125 35.8594 71.3125C35.2031 71.3125 34.6875 70.7969 34.6875 70.1406C34.6875 69.4844 35.2031 68.9688 35.8594 68.9688ZM74.1406 68.9688C74.7969 68.9688 75.3125 69.4844 75.3125 70.1406C75.3125 70.7969 74.7969 71.3125 74.1406 71.3125C73.4844 71.3125 72.9688 70.7969 72.9688 70.1406C72.9688 69.4844 73.4844 68.9688 74.1406 68.9688Z" fill="url(#paint0_linear_17_289)" shape-rendering="crispEdges"/>
</g>
<defs>
<filter id="filter0_d_17_289" x="0" y="0" width="110" height="110" filterUnits="userSpaceOnUse" color-interpolation-filters="sRGB">
<feFlood flood-opacity="0" result="BackgroundImageFix"/>
<feColorMatrix in="SourceAlpha" type="matrix" values="0 0 0 0 0 0 0 0 0 0 0 0 0 0 0 0 0 0 127 0" result="hardAlpha"/>
<feOffset dy="4"/>
<feGaussianBlur stdDeviation="15"/>
<feComposite in2="hardAlpha" operator="out"/>
<feColorMatrix type="matrix" values="0 0 0 0 1 0 0 0 0 1 0 0 0 0 1 0 0 0 0.53 0"/>
<feBlend mode="normal" in2="BackgroundImageFix" result="effect1_dropShadow_17_289"/>
<feBlend mode="normal" in="SourceGraphic" in2="effect1_dropShadow_17_289" result="shape"/>
</filter>
<linearGradient id="paint0_linear_17_289" x1="30" y1="51" x2="76.875" y2="51" gradientUnits="userSpaceOnUse">
<stop stop-color="#6E00A2"/>
<stop offset="1" stop-color="#5239E9"/>
</linearGradient>
</defs>
</svg>
