<svg width="21" height="20" viewBox="0 0 21 20" fill="none" xmlns="http://www.w3.org/2000/svg">
<path d="M11.1556 12.8789L10.5924 12.3281C10.5006 12.2581 10.3858 12.2232 10.2695 12.2299C10.1533 12.2366 10.0435 12.2845 9.96073 12.3646C9.87794 12.4447 9.8278 12.5516 9.8197 12.6652C9.81159 12.7788 9.84605 12.8914 9.91666 12.982L10.1395 13.2L8.55073 14.7586C8.12489 15.1378 7.56596 15.3419 6.99019 15.3284C6.41442 15.315 5.86612 15.0849 5.45934 14.6861C5.05255 14.2874 4.81859 13.7506 4.80611 13.1875C4.79362 12.6243 5.00358 12.0781 5.39231 11.6625L6.97392 10.1156L7.16802 10.3031C7.2117 10.3501 7.26469 10.3879 7.32376 10.4142C7.38283 10.4406 7.44676 10.4549 7.51167 10.4564C7.57657 10.4578 7.64111 10.4464 7.70135 10.4227C7.76159 10.399 7.81628 10.3636 7.86211 10.3186C7.90793 10.2736 7.94394 10.22 7.96794 10.161C7.99194 10.102 8.00343 10.0389 8.00172 9.97538C8 9.9119 7.98512 9.84943 7.95798 9.79174C7.93083 9.73406 7.89199 9.68238 7.8438 9.63982L7.3142 9.12185C7.26969 9.07827 7.21683 9.0437 7.15865 9.02011C7.10047 8.99652 7.0381 8.98438 6.97512 8.98438C6.91213 8.98438 6.84977 8.99652 6.79158 9.02011C6.7334 9.0437 6.68054 9.07827 6.63603 9.12185L4.71893 10.9969C4.18131 11.5253 3.85427 12.2242 3.79672 12.9675C3.73916 13.7109 3.95488 14.4499 4.40501 15.0515L0.146662 19.0758C0.101305 19.1185 0.0650128 19.1696 0.0398601 19.2261C0.0147074 19.2826 0.00118763 19.3434 7.47911e-05 19.405C-0.00103805 19.4666 0.0102775 19.5278 0.0333743 19.5851C0.056471 19.6424 0.0908958 19.6947 0.13468 19.739C0.179191 19.7826 0.23205 19.8172 0.290233 19.8408C0.348416 19.8644 0.410782 19.8765 0.473766 19.8765C0.53675 19.8765 0.599116 19.8644 0.657299 19.8408C0.715482 19.8172 0.76834 19.7826 0.812852 19.739L5.07599 15.7195C5.69071 16.1652 6.44869 16.3801 7.21184 16.3251C7.97499 16.27 8.69251 15.9486 9.23369 15.4195L11.1508 13.5445C11.242 13.4584 11.2945 13.3404 11.297 13.2164C11.2977 13.1537 11.2855 13.0916 11.2612 13.0336C11.2369 12.9757 11.201 12.923 11.1556 12.8789Z" fill="#A900D3"/>
<path d="M20.8081 0.152246C20.7225 0.0607737 20.6033 0.00620843 20.4766 0.000497787C20.35 -0.00521286 20.2261 0.0383963 20.1323 0.121777L15.0208 4.70381C14.4057 4.25556 13.6464 4.03853 12.8814 4.09232C12.1164 4.1461 11.3966 4.46711 10.8534 4.99678L8.93632 6.87178C8.84705 6.9596 8.79695 7.07841 8.79695 7.20225C8.79695 7.32608 8.84705 7.44489 8.93632 7.53271L10.077 8.64834L7.86992 10.7155C7.82445 10.7582 7.788 10.8091 7.76267 10.8655C7.73734 10.9219 7.72361 10.9827 7.72228 11.0443C7.72094 11.1058 7.73202 11.1671 7.75489 11.2245C7.77775 11.2819 7.81196 11.3343 7.85554 11.3788C7.89913 11.4233 7.95124 11.4589 8.00891 11.4837C8.06658 11.5085 8.12868 11.5219 8.19165 11.5232C8.25463 11.5245 8.31725 11.5137 8.37594 11.4913C8.43463 11.469 8.48825 11.4355 8.53372 11.3929L10.7552 9.31162L10.9613 9.51318L8.7494 11.5757C8.67988 11.6403 8.63177 11.7238 8.61128 11.8154C8.5908 11.907 8.59889 12.0025 8.6345 12.0896C8.67011 12.1767 8.73161 12.2513 8.81105 12.3038C8.89049 12.3564 8.98421 12.3844 9.0801 12.3843C9.20433 12.3844 9.32375 12.3373 9.4132 12.253L11.6347 10.1718L12.7729 11.2874C12.8175 11.331 12.8703 11.3656 12.9285 11.3891C12.9867 11.4127 13.0491 11.4249 13.112 11.4249C13.175 11.4249 13.2374 11.4127 13.2956 11.3891C13.3538 11.3656 13.4066 11.331 13.4511 11.2874L15.3682 9.4124C15.9062 8.88636 16.2343 8.18957 16.2931 7.44778C16.352 6.70599 16.1379 5.96804 15.6894 5.36709L20.7721 0.813183C20.8663 0.730094 20.923 0.613869 20.9297 0.489979C20.9365 0.366089 20.8927 0.244639 20.8081 0.152246ZM14.6949 8.76318L13.1037 10.3007L9.9476 7.20693L11.5292 5.66006C11.95 5.24949 12.5202 5.01921 13.1146 5.01987C13.7089 5.02053 14.2787 5.25207 14.6985 5.66357C15.1182 6.07507 15.3537 6.63282 15.353 7.21411C15.3524 7.7954 15.1156 8.35262 14.6949 8.76318Z" fill="#0042A5"/>
</svg>
